<svg
  width="2800"
  height="440"
  viewBox="0 0 2800 440"
  fill="none"
  xmlns="http://www.w3.org/2000/svg"
  role="img"
  aria-labelledby="logo-title logo-desc"
>
  <title id="logo-title">npXsoftware</title>
  <desc id="logo-desc">npXsoftware wordmark with green chevrons</desc>
  <g fill="#BEFFC7">
    <path d="M4 220 144 76l42 44-94 100 94 100-42 44L4 220Z" />
    <path d="M406 220 266 76l-42 44 94 100-94 100 42 44 140-144Z" />
  </g>
  <g fill="#F6F8FF">
    <path d="M476.592 330 L476.592 147.096 L527.124 147.096 L527.124 197.804 L517.631 182.573 Q527.485 163.958 545.811 154.239 Q564.136 144.519 587.533 144.519 Q609.362 144.519 626.497 153.086 Q643.633 161.652 653.559 179.5 Q663.485 197.347 663.485 225.354 L663.485 330 L610.445 330 L610.445 233.281 Q610.445 211.223 600.734 200.734 Q591.023 190.244 573.508 190.244 Q560.763 190.244 550.749 195.557 Q540.735 200.869 535.183 211.696 Q529.632 222.523 529.632 239.544 L529.632 330 Z M819.265 332.582 Q796.358 332.582 778.906 322.416 Q761.455 312.251 751.82 291.41 Q742.186 270.569 742.186 238.614 Q742.186 206.187 751.411 185.45 Q760.636 164.712 778.022 154.616 Q795.407 144.519 819.265 144.519 Q845.18 144.519 865.787 156.146 Q886.394 167.772 898.427 188.85 Q910.46 209.927 910.46 238.614 Q910.46 267.307 898.427 288.385 Q886.394 309.462 865.787 321.022 Q845.18 332.582 819.265 332.582 Z M711.374 395.96 L711.374 147.096 L761.906 147.096 L761.906 184.565 L761.014 238.822 L764.414 293.078 L764.414 395.96 Z M810.138 289.152 Q823.356 289.152 833.848 283.123 Q844.34 277.093 850.574 265.65 Q856.809 254.207 856.809 238.614 Q856.809 222.682 850.574 211.343 Q844.34 200.003 833.848 193.973 Q823.356 187.944 810.138 187.944 Q796.921 187.944 786.426 193.973 Q775.931 200.003 769.697 211.343 Q763.463 222.682 763.463 238.614 Q763.463 254.207 769.697 265.65 Q775.931 277.093 786.426 283.123 Q796.921 289.152 810.138 289.152 Z M915.964 330 L1018.145 188.735 L1018.012 229.036 L920.251 92 L982.657 92 L1050.296 187.375 L1024.185 187.715 L1091.075 92 L1150.766 92 L1053.42 226.592 L1053.42 187.248 L1156.477 330 L1092.993 330 L1022.894 229.11 L1048.054 228.972 L979.109 330 Z M1236.718 332.582 Q1213.534 332.582 1191.952 326.967 Q1170.37 321.351 1157.53 312.989 L1175.327 275.048 Q1187.763 282.868 1204.965 287.699 Q1222.167 292.531 1239.034 292.531 Q1257.283 292.531 1264.983 288.098 Q1272.684 283.664 1272.684 275.892 Q1272.684 269.554 1266.699 266.25 Q1260.715 262.946 1250.887 261.206 Q1241.058 259.466 1229.257 257.835 Q1217.455 256.204 1205.587 253.245 Q1193.719 250.286 1183.893 244.578 Q1174.068 238.869 1168.081 229.012 Q1162.093 219.155 1162.093 203.382 Q1162.093 186.111 1172.19 172.856 Q1182.286 159.602 1201.175 152.06 Q1220.063 144.519 1246.626 144.519 Q1265.592 144.519 1284.863 148.568 Q1304.134 152.616 1317.112 160.228 L1299.315 198.17 Q1286.061 190.35 1272.702 187.46 Q1259.344 184.57 1246.828 184.57 Q1228.925 184.57 1220.781 189.341 Q1212.637 194.112 1212.637 201.411 Q1212.637 208.158 1218.624 211.632 Q1224.611 215.107 1234.439 217.051 Q1244.267 218.995 1256.066 220.629 Q1267.865 222.263 1279.667 225.285 Q1291.469 228.308 1301.294 233.915 Q1311.12 239.523 1317.107 249.279 Q1323.094 259.036 1323.094 274.601 Q1323.094 291.468 1312.963 304.585 Q1302.832 317.702 1283.566 325.142 Q1264.301 332.582 1236.718 332.582 Z M1442.624 332.582 Q1413.559 332.582 1390.947 320.477 Q1368.334 308.373 1355.319 287.088 Q1342.303 265.804 1342.303 238.444 Q1342.303 210.878 1355.358 189.723 Q1368.414 168.569 1390.941 156.544 Q1413.469 144.519 1442.624 144.519 Q1471.784 144.519 1494.493 156.531 Q1517.201 168.543 1530.076 189.673 Q1542.951 210.803 1542.951 238.45 Q1542.951 265.878 1530.102 287.125 Q1517.254 308.373 1494.469 320.477 Q1471.684 332.582 1442.624 332.582 Z M1442.624 289.152 Q1456.049 289.152 1466.541 283.123 Q1477.033 277.093 1483.166 265.583 Q1489.3 254.074 1489.3 238.455 Q1489.3 222.549 1483.166 211.276 Q1477.033 200.003 1466.541 193.973 Q1456.049 187.944 1442.73 187.944 Q1429.407 187.944 1418.914 193.973 Q1408.422 200.003 1402.188 211.276 Q1395.954 222.549 1395.954 238.455 Q1395.954 254.074 1402.188 265.583 Q1408.422 277.093 1418.901 283.123 Q1429.38 289.152 1442.624 289.152 Z M1585.028 330 L1585.028 142.942 Q1585.028 112.033 1603.335 93.586 Q1621.642 75.138 1655.679 75.138 Q1667.096 75.138 1677.864 77.452 Q1688.633 79.765 1696.108 84.732 L1682.263 123.137 Q1677.907 120.204 1672.358 118.432 Q1666.809 116.661 1660.817 116.661 Q1649.172 116.661 1642.839 123.301 Q1636.507 129.942 1636.507 143.414 L1636.507 160.462 L1638.068 183.263 L1638.068 330 Z M1556.654 191.854 L1556.654 151.144 L1683.533 151.144 L1683.533 191.854 Z M1784.868 332.582 Q1752.398 332.582 1734.466 316.206 Q1716.533 299.83 1716.533 267.153 L1716.533 106.508 L1769.573 106.508 L1769.573 266.266 Q1769.573 277.842 1775.6 284.243 Q1781.627 290.645 1792.12 290.645 Q1804.848 290.645 1813.768 283.903 L1827.82 321.282 Q1819.798 326.998 1808.413 329.79 Q1797.028 332.582 1784.868 332.582 Z M1688.159 187.811 L1688.159 147.096 L1815.038 147.096 L1815.038 187.811 Z M1896.333 330 L1830.299 147.096 L1880.491 147.096 L1935.194 304.415 L1911.251 304.415 L1968.339 147.096 L2013.309 147.096 L2068.628 304.415 L2045.088 304.415 L2101.497 147.096 L2148.3 147.096 L2082.058 330 L2030.851 330 L1982.109 194.935 L1997.573 194.935 L1947.54 330 Z M2277.616 330 L2277.616 294.353 L2274.433 286.331 L2274.433 222.544 Q2274.433 205.454 2264.05 196.059 Q2253.667 186.663 2232.098 186.663 Q2217.669 186.663 2203.52 191.187 Q2189.37 195.711 2179.366 203.536 L2160.427 166.625 Q2175.515 155.808 2196.552 150.164 Q2217.59 144.519 2239.35 144.519 Q2281.34 144.519 2304.407 164.194 Q2327.473 183.869 2327.473 225.524 L2327.473 330 Z M2222.042 332.582 Q2200.701 332.582 2185.401 325.375 Q2170.101 318.169 2161.973 305.592 Q2153.845 293.014 2153.845 277.242 Q2153.845 261.07 2161.792 248.796 Q2169.74 236.521 2187.072 229.549 Q2204.404 222.576 2232.279 222.576 L2280.681 222.576 L2280.681 253.484 L2238.16 253.484 Q2219.353 253.484 2212.41 259.548 Q2205.467 265.613 2205.467 275.074 Q2205.467 285.019 2213.372 291.014 Q2221.277 297.009 2235.11 297.009 Q2248.471 297.009 2259.102 290.81 Q2269.732 284.61 2274.433 272.147 L2282.445 296.776 Q2276.797 314.233 2261.49 323.407 Q2246.182 332.582 2222.042 332.582 Z M2375.361 330 L2375.361 147.096 L2425.894 147.096 L2425.894 198.888 L2418.918 183.933 Q2427.004 164.431 2444.987 154.475 Q2462.969 144.519 2488.948 144.519 L2488.948 193.437 Q2485.484 192.964 2482.703 192.728 Q2479.922 192.491 2477.074 192.491 Q2455.017 192.491 2441.709 204.989 Q2428.401 217.487 2428.401 243.688 L2428.401 330 Z M2609.632 332.582 Q2578.299 332.582 2554.818 320.411 Q2531.337 308.24 2518.422 286.926 Q2505.507 265.613 2505.507 238.482 Q2505.507 211.08 2518.148 189.835 Q2530.789 168.59 2552.913 156.555 Q2575.037 144.519 2602.907 144.519 Q2629.83 144.519 2651.375 155.912 Q2672.92 167.305 2685.492 188.52 Q2698.064 209.736 2698.064 239.3 Q2698.064 242.354 2697.828 246.259 Q2697.591 250.164 2697.251 253.426 L2548.57 253.426 L2548.57 222.517 L2669.169 222.517 L2648.679 231.761 Q2648.886 217.598 2643.027 206.976 Q2637.167 196.353 2626.983 190.358 Q2616.799 184.363 2603.172 184.363 Q2589.551 184.363 2579.197 190.358 Q2568.843 196.353 2563.153 207.079 Q2557.464 217.805 2557.464 232.378 L2557.464 240.654 Q2557.464 255.636 2564.07 266.903 Q2570.676 278.171 2582.799 284.267 Q2594.922 290.363 2611.194 290.363 Q2625.756 290.363 2636.753 285.938 Q2647.749 281.513 2657.137 272.455 L2685.357 303.071 Q2672.575 317.484 2653.609 325.033 Q2634.644 332.582 2609.632 332.582 Z" />
  </g>
</svg>
